<svg aria-hidden="true" style="width:0;height:0;position:absolute;overflow:hidden" xmlns="http://www.w3.org/2000/svg"><defs><symbol id="icon-search-icon" viewBox="0 0 32 32"><path d="M11.733 0h.001c6.48 0 11.733 5.253 11.733 11.733 0 2.676-.896 5.143-2.404 7.117l.021-.028 8.847 8.847a1.6 1.6 0 0 1-2.087 2.414l.004.003-.179-.156-8.847-8.847a11.654 11.654 0 0 1-7.088 2.383c-6.48 0-11.733-5.253-11.733-11.733S5.254 0 11.733 0zm0 3.2a8.533 8.533 0 0 0 0 17.066c4.713 0 8.533-3.82 8.533-8.533S16.446 3.2 11.733 3.2z"/></symbol></defs></svg>