<svg aria-hidden="true" style="position: absolute; width: 0; height: 0; overflow: hidden;" version="1.1" xmlns="http://www.w3.org/2000/svg" xmlns:xlink="http://www.w3.org/1999/xlink">
<defs>
<symbol id="icon-search-icon" viewBox="0 0 32 32">
<path d="M11.733 0c0 0 0 0 0.001 0 6.48 0 11.733 5.253 11.733 11.733 0 2.676-0.896 5.143-2.404 7.117l0.021-0.028 8.847 8.847c0.287 0.289 0.464 0.687 0.464 1.127 0 0.884-0.716 1.6-1.6 1.6-0.356 0-0.685-0.116-0.951-0.313l0.004 0.003-0.179-0.156-8.847-8.847c-1.946 1.487-4.412 2.383-7.088 2.383-6.48 0-11.733-5.253-11.733-11.733s5.253-11.733 11.732-11.733h0zM11.733 3.2c-4.713 0-8.533 3.821-8.533 8.533s3.821 8.533 8.533 8.533v0c4.713 0 8.533-3.82 8.533-8.533s-3.82-8.533-8.533-8.533v0z"></path>
</symbol>
</defs>
</svg>
